<svg xmlns="http://www.w3.org/2000/svg" height="20" width="20"><path d="M5.5 12.5q-.417 0-.708-.292-.292-.291-.292-.708t.292-.708q.291-.292.708-.292t.708.292q.292.291.292.708t-.292.708q-.291.292-.708.292Zm0-6q-.417 0-.708-.292Q4.5 5.917 4.5 5.5t.292-.708Q5.083 4.5 5.5 4.5t.708.292q.292.291.292.708t-.292.708Q5.917 6.5 5.5 6.5Zm2.25 9q-.417 0-.708-.292-.292-.291-.292-.708t.292-.708q.291-.292.708-.292t.708.292q.292.291.292.708t-.292.708q-.291.292-.708.292Zm0-6q-.417 0-.708-.292-.292-.291-.292-.708t.292-.708q.291-.292.708-.292t.708.292q.292.291.292.708t-.292.708q-.291.292-.708.292Zm1.25 2q0-.417.292-.708.291-.292.708-.292t.708.292q.292.291.292.708t-.292.708q-.291.292-.708.292t-.708-.292Q9 11.917 9 11.5Zm1-5q-.417 0-.708-.292Q9 5.917 9 5.5t.292-.708Q9.583 4.5 10 4.5t.708.292Q11 5.083 11 5.5t-.292.708Q10.417 6.5 10 6.5Zm2.25 9q-.417 0-.708-.292-.292-.291-.292-.708t.292-.708q.291-.292.708-.292t.708.292q.292.291.292.708t-.292.708q-.291.292-.708.292Zm0-6q-.417 0-.708-.292-.292-.291-.292-.708t.292-.708q.291-.292.708-.292t.708.292q.292.291.292.708t-.292.708q-.291.292-.708.292Zm2.25 3q-.417 0-.708-.292-.292-.291-.292-.708t.292-.708q.291-.292.708-.292t.708.292q.292.291.292.708t-.292.708q-.291.292-.708.292Zm0-6q-.417 0-.708-.292-.292-.291-.292-.708t.292-.708q.291-.292.708-.292t.708.292q.292.291.292.708t-.292.708q-.291.292-.708.292Z"/></svg>